<svg width="48" height="48" viewBox="0 0 48 48" fill="none" xmlns="http://www.w3.org/2000/svg">
<path d="M40.014 6H7.986C6.8895 6 6 6.8895 6 7.986V40.014C6 41.112 6.8895 42 7.986 42H25.227V28.059H20.5335V22.6275H25.227V18.615C25.227 13.9665 28.068 11.4375 32.2155 11.4375C34.203 11.4375 35.9115 11.583 36.4095 11.649V16.509H33.528C31.278 16.509 30.84 17.5905 30.84 19.1655V22.632H36.216L35.5185 28.077H30.84V42H40.0125C41.112 42 42 41.112 42 40.014V7.986C42 6.8895 41.112 6 40.014 6Z" fill="white"/>
</svg>
