<svg width="48" height="48" viewBox="0 0 48 48" fill="none" xmlns="http://www.w3.org/2000/svg">
<path d="M43.9217 11.8107C42.4467 12.4489 40.8718 12.8836 39.2135 13.0821C40.9035 12.0798 42.2034 10.5 42.8184 8.61516C41.2334 9.52561 39.4769 10.1883 37.6069 10.5574C36.1137 8.98426 33.9854 8 31.6222 8C27.094 8 23.4225 11.6139 23.4225 16.066C23.4225 16.7058 23.4975 17.321 23.6342 17.9099C16.8178 17.5933 10.7764 14.3715 6.73322 9.501C6.02158 10.6854 5.62327 12.0617 5.62327 13.5611C5.62327 16.3662 7.07321 18.8318 9.26978 20.2803C7.92484 20.2377 6.65989 19.8735 5.5566 19.2698V19.3699C5.5566 23.2823 8.37815 26.5451 12.133 27.2883C11.4447 27.4703 10.7181 27.5688 9.97308 27.5688C9.44977 27.5688 8.94813 27.5196 8.44648 27.4277C9.4981 30.6315 12.5213 32.9674 16.1195 33.0331C13.3196 35.1968 9.77143 36.4862 5.94992 36.4862C5.29995 36.4862 4.65164 36.4485 4 36.3763C7.64818 38.663 11.9463 40 16.5945 40C31.6838 40 39.9252 27.7033 39.9252 17.0569C39.9252 16.714 39.9252 16.3679 39.9002 16.0234C41.5018 14.8931 42.9 13.4643 44 11.8435L43.9217 11.8107Z" fill="white"/>
</svg>
